<?xml version="1.0" standalone="no"?>
<!DOCTYPE svg PUBLIC "-//W3C//DTD SVG 20010904//EN"
 "http://www.w3.org/TR/2001/REC-SVG-20010904/DTD/svg10.dtd">
<svg version="1.0" xmlns="http://www.w3.org/2000/svg"
 width="580.000000pt" height="580.000000pt" viewBox="0 0 580.000000 580.000000"
 preserveAspectRatio="xMidYMid meet">
<metadata>
Created by potrace 1.14, written by Peter Selinger 2001-2017
</metadata>
<g transform="translate(0.000000,580.000000) scale(0.100000,-0.100000)"
fill="#000000" stroke="none">
<path d="M2433 3140 c-39 -23 -79 -76 -124 -165 -33 -63 -35 -65 -66 -59 -49
9 -134 -35 -204 -106 l-59 -60 23 -26 22 -25 6 28 c8 42 24 66 70 107 68 62
159 89 159 47 0 -17 -67 -86 -155 -158 -22 -18 -34 -33 -28 -33 12 0 70 47
116 94 16 15 31 26 34 23 2 -3 -2 -30 -11 -60 -28 -96 -20 -147 23 -147 22 1
24 2 9 11 -12 6 -18 22 -18 46 0 41 26 146 45 183 11 22 124 120 138 120 3 0
8 -15 11 -33 9 -50 44 -76 137 -103 97 -28 121 -46 117 -88 -9 -88 -188 -93
-221 -5 -12 31 -47 41 -47 14 0 -27 28 -71 57 -91 35 -24 156 -26 197 -4 34
18 56 58 56 102 0 63 -28 83 -172 123 -75 20 -97 49 -74 94 30 58 143 54 181
-6 33 -53 69 -38 40 17 -22 42 -69 64 -138 64 -49 -1 -57 2 -51 15 29 71 30
72 10 87 -26 19 -45 18 -83 -6z m77 -18 c0 -10 -15 -39 -32 -63 -42 -58 -151
-156 -156 -141 -7 21 66 137 112 180 49 45 76 53 76 24z"/>
<path d="M391 3120 c-124 -33 -193 -85 -207 -159 -7 -33 16 -81 38 -81 9 0 9
3 0 12 -7 7 -12 23 -12 38 0 90 160 183 345 200 l80 7 -85 1 c-55 1 -111 -6
-159 -18z"/>
<path d="M757 3082 c66 -61 65 -162 -2 -254 -66 -90 -169 -147 -269 -149 l-51
-1 39 -9 c48 -11 129 2 185 31 169 86 233 284 124 380 -42 38 -66 40 -26 2z"/>
<path d="M525 3040 c-34 -22 -85 -87 -85 -107 0 -7 -20 -56 -45 -108 -35 -74
-48 -93 -61 -88 -14 5 -14 3 -3 -15 11 -17 10 -24 -5 -47 -14 -22 -20 -25 -27
-14 -13 21 -11 87 4 92 9 3 9 7 -1 20 -8 9 -11 25 -7 37 6 20 -9 29 -19 11 -4
-5 -7 -41 -8 -80 -2 -61 1 -74 19 -92 l21 -21 18 20 c11 11 25 28 32 36 10 12
18 14 32 6 10 -5 25 -10 32 -9 7 0 1 5 -14 11 -38 13 -36 36 14 127 65 119
116 189 150 207 24 12 28 18 17 25 -20 13 -31 11 -64 -11z"/>
<path d="M2928 3036 c-58 -21 -86 -43 -107 -84 -68 -133 -4 -298 123 -317 119
-18 205 44 227 161 29 155 -108 290 -243 240z m122 -44 c93 -46 108 -218 25
-291 -47 -41 -91 -48 -148 -23 -59 26 -87 77 -87 159 0 70 22 119 69 150 41
28 93 30 141 5z"/>
<path d="M4655 3045 c-5 -2 -22 -6 -37 -9 -39 -9 -88 -54 -109 -101 -26 -56
-25 -147 2 -203 62 -128 259 -137 327 -14 64 115 22 272 -84 312 -29 11 -86
20 -99 15z m111 -66 c41 -38 54 -73 54 -144 0 -75 -16 -113 -59 -144 -114 -81
-246 20 -227 173 9 65 33 107 77 129 47 24 121 18 155 -14z"/>
<path d="M5459 3041 c-48 -15 -71 -33 -85 -67 -30 -71 13 -121 125 -149 90
-22 123 -46 119 -88 -9 -91 -173 -96 -219 -6 -13 26 -24 37 -34 33 -38 -15 10
-95 72 -120 69 -29 174 -9 208 40 8 11 15 40 15 64 0 62 -36 94 -132 116 -94
23 -118 38 -118 76 0 81 148 96 192 20 20 -35 48 -40 48 -9 0 29 -50 75 -96
88 -44 12 -58 13 -95 2z"/>
<path d="M3257 3033 c-4 -3 -7 -93 -7 -200 l0 -193 125 0 c103 0 125 3 125 15
0 11 -20 15 -97 17 l-98 3 -3 183 c-2 168 -4 182 -21 182 -10 0 -21 -3 -24 -7z"/>
<path d="M3580 2883 c0 -181 10 -211 78 -240 47 -20 140 -13 176 13 43 32 51
67 51 229 0 131 -2 150 -16 153 -15 3 -17 -15 -20 -150 -3 -125 -7 -159 -21
-181 -35 -52 -139 -55 -184 -6 -16 18 -20 42 -24 177 -4 139 -7 157 -22 160
-17 3 -18 -9 -18 -155z"/>
<path d="M3965 3029 c-12 -19 8 -28 70 -31 l60 -3 3 -177 c2 -169 3 -178 22
-178 19 0 20 9 22 178 l3 177 65 5 c49 4 65 9 65 20 0 13 -25 15 -152 18 -103
2 -154 -1 -158 -9z"/>
<path d="M4357 3034 c-4 -4 -7 -94 -7 -201 l0 -193 25 0 25 0 -2 197 c-3 169
-5 198 -18 201 -9 1 -19 0 -23 -4z"/>
<path d="M4957 3033 c-4 -3 -7 -93 -7 -200 0 -186 1 -193 20 -193 19 0 20 7
20 149 0 86 4 152 10 156 5 3 55 -64 111 -150 84 -127 107 -155 126 -155 21 0
23 4 24 53 2 136 -1 340 -5 345 -3 2 -12 2 -21 -2 -14 -5 -16 -26 -14 -153 1
-90 -2 -148 -8 -150 -5 -2 -56 66 -113 152 -96 145 -121 171 -143 148z"/>
<path d="M1424 2979 c-19 -21 -19 -21 6 -18 14 2 26 12 28 22 5 23 -11 22 -34
-4z"/>
<path d="M1601 2958 c-17 -18 -29 -38 -26 -46 3 -7 5 -18 5 -24 0 -7 5 -6 14
1 21 18 70 10 74 -12 2 -10 -10 -33 -27 -52 -63 -72 -76 -136 -31 -150 17 -5
80 18 80 31 0 2 -9 0 -21 -6 -25 -14 -49 -6 -49 15 0 22 37 93 71 136 39 50
37 59 -15 59 -52 0 -63 11 -42 42 34 48 12 52 -33 6z"/>
<path d="M1258 2966 c-70 -25 -106 -58 -123 -113 -5 -17 -2 -23 9 -23 9 0 16
7 16 16 0 26 61 79 114 99 45 17 49 18 61 2 15 -21 25 -22 25 -2 0 15 -30 35
-52 35 -7 -1 -30 -7 -50 -14z"/>
<path d="M973 2900 c-60 -27 -130 -100 -139 -145 -7 -39 15 -76 45 -74 10 0
12 2 4 6 -23 9 -14 68 16 110 48 66 130 119 146 94 10 -17 -12 -49 -53 -76
-26 -18 -31 -25 -18 -25 19 0 96 70 96 88 0 14 -29 42 -43 42 -7 0 -31 -9 -54
-20z"/>
<path d="M1892 2899 c-43 -21 -124 -95 -142 -128 -12 -24 18 -85 45 -90 17 -3
18 -1 6 13 -33 39 35 153 114 190 67 32 75 -5 13 -58 -45 -39 -41 -48 6 -17
27 18 55 55 56 73 0 11 -30 38 -43 38 -7 0 -31 -10 -55 -21z"/>
<path d="M1381 2868 c-6 -17 -19 -40 -28 -50 -17 -19 -26 -88 -17 -120 10 -33
69 -23 112 18 l37 37 -38 -32 c-90 -74 -109 -12 -38 127 26 50 26 52 2 52 -12
0 -23 -11 -30 -32z"/>
<path d="M1228 2765 c5 -28 -13 -57 -59 -92 -19 -14 -26 -23 -16 -19 10 3 23
6 27 6 5 0 25 14 45 31 39 35 46 72 16 88 -16 9 -17 7 -13 -14z"/>
<path d="M1004 2711 c-17 -10 -40 -21 -50 -24 -19 -5 -19 -5 0 -6 17 -1 86 35
86 45 0 6 -3 5 -36 -15z"/>
<path d="M1890 2694 c-24 -9 -29 -13 -14 -13 11 -1 29 6 40 14 22 17 20 17
-26 -1z"/>
<path d="M1086 2672 c-10 -16 1 -32 22 -32 11 0 13 3 6 8 -6 4 -13 14 -16 22
-3 10 -6 11 -12 2z"/>
</g>
</svg>
